<svg xmlns="http://www.w3.org/2000/svg" viewBox="0 0 1200 630" width="1200" height="630">
  <defs>
    <linearGradient id="bg" x1="0" y1="0" x2="1" y2="1">
      <stop offset="0%" stop-color="#08080a"/>
      <stop offset="100%" stop-color="#111114"/>
    </linearGradient>
    <linearGradient id="grad" x1="0" y1="0" x2="1" y2="0">
      <stop offset="0%" stop-color="#5eead4"/>
      <stop offset="50%" stop-color="#a78bfa"/>
      <stop offset="100%" stop-color="#f0abfc"/>
    </linearGradient>
    <radialGradient id="glow" cx="0.85" cy="0.4" r="0.6">
      <stop offset="0%" stop-color="#a78bfa" stop-opacity="0.3"/>
      <stop offset="100%" stop-color="#a78bfa" stop-opacity="0"/>
    </radialGradient>
  </defs>
  <rect width="1200" height="630" fill="url(#bg)"/>
  <rect width="1200" height="630" fill="url(#glow)"/>
  <!-- grid -->
  <g stroke="rgba(255,255,255,0.04)" stroke-width="1">
    <line x1="0" y1="100" x2="1200" y2="100"/>
    <line x1="0" y1="200" x2="1200" y2="200"/>
    <line x1="0" y1="300" x2="1200" y2="300"/>
    <line x1="0" y1="400" x2="1200" y2="400"/>
    <line x1="0" y1="500" x2="1200" y2="500"/>
    <line x1="100" y1="0" x2="100" y2="630"/>
    <line x1="200" y1="0" x2="200" y2="630"/>
    <line x1="300" y1="0" x2="300" y2="630"/>
    <line x1="400" y1="0" x2="400" y2="630"/>
    <line x1="500" y1="0" x2="500" y2="630"/>
    <line x1="600" y1="0" x2="600" y2="630"/>
    <line x1="700" y1="0" x2="700" y2="630"/>
    <line x1="800" y1="0" x2="800" y2="630"/>
    <line x1="900" y1="0" x2="900" y2="630"/>
    <line x1="1000" y1="0" x2="1000" y2="630"/>
    <line x1="1100" y1="0" x2="1100" y2="630"/>
  </g>
  <!-- logo -->
  <g transform="translate(80, 110)">
    <path d="M0 0 L0 80 M0 40 L48 40 M48 0 L72 0 L72 80 L48 80" stroke="url(#grad)" stroke-width="10" fill="none" stroke-linecap="round" stroke-linejoin="round"/>
  </g>
  <text x="80" y="380" fill="#f5f5f7" font-family="Inter, sans-serif" font-size="96" font-weight="600" letter-spacing="-3">Humoyun Sodikov</text>
  <text x="80" y="450" fill="url(#grad)" font-family="Inter, sans-serif" font-size="46" font-weight="600" letter-spacing="-1">AI automation engineer · developer</text>
  <text x="80" y="525" fill="#a1a1aa" font-family="Inter, sans-serif" font-size="28">I build AI systems that run businesses on autopilot.</text>
  <text x="80" y="582" fill="#71717a" font-family="JetBrains Mono, monospace" font-size="20">humoyun.dev</text>
</svg>
